<svg id="icons" xmlns="http://www.w3.org/2000/svg" version="1.1">
  <symbol id="stationary"  viewBox="0 0 26 27" fill="none">
    <path d="M13 0.661011L3 25.6894L3.94667 26.661L13 22.5557L22.0533 26.661L23 25.6894L13 0.661011Z" fill="#9F9EB1"/>
  </symbol>
  <symbol viewBox="0 0 26 27" fill="none" id="locked">
    <path d="M20.3333 9.32768H19.0952V6.85149C19.0952 3.43434 16.3219 0.661011 12.9048 0.661011C9.48762 0.661011 6.71429 3.43434 6.71429 6.85149V9.32768H5.47619C4.11429 9.32768 3 10.442 3 11.8039V24.1848C3 25.5467 4.11429 26.661 5.47619 26.661H20.3333C21.6952 26.661 22.8095 25.5467 22.8095 24.1848V11.8039C22.8095 10.442 21.6952 9.32768 20.3333 9.32768ZM12.9048 20.4705C11.5429 20.4705 10.4286 19.3562 10.4286 17.9943C10.4286 16.6324 11.5429 15.5182 12.9048 15.5182C14.2667 15.5182 15.381 16.6324 15.381 17.9943C15.381 19.3562 14.2667 20.4705 12.9048 20.4705ZM16.7429 9.32768H9.06667V6.85149C9.06667 4.73434 10.7876 3.01339 12.9048 3.01339C15.0219 3.01339 16.7429 4.73434 16.7429 6.85149V9.32768Z" fill="#E11936"/>
  </symbol>
  <symbol id="sentry" viewBox="0 0 26 26" fill="none">
    <path d="M13 4C7.09091 4 2.04455 7.732 0 13C2.04455 18.268 7.09091 22 13 22C18.9091 22 23.9555 18.268 26 13C23.9555 7.732 18.9091 4 13 4ZM13 19C9.73818 19 7.09091 16.312 7.09091 13C7.09091 9.688 9.73818 7 13 7C16.2618 7 18.9091 9.688 18.9091 13C18.9091 16.312 16.2618 19 13 19ZM13 9.4C11.0382 9.4 9.45455 11.008 9.45455 13C9.45455 14.992 11.0382 16.6 13 16.6C14.9618 16.6 16.5455 14.992 16.5455 13C16.5455 11.008 14.9618 9.4 13 9.4Z" fill="#E11936"/>
  </symbol>
  <symbol viewBox="0 0 11 18" fill="none" id="arrow">
    <path d="M1.30227 17.6246C1.52097 17.7316 1.778 17.6706 1.92606 17.4863L10.0763 7.26454C10.1987 7.11132 10.222 6.90189 10.1375 6.7253C10.0524 6.54919 9.87433 6.43678 9.67831 6.43678H6.42746L9.1152 1.02738C9.19429 0.869675 9.18584 0.682153 9.09282 0.531917C8.99981 0.381681 8.83616 0.290161 8.65957 0.290161H2.54691C2.3131 0.290161 2.10965 0.449362 2.05294 0.676176L0.0153822 8.86035C-0.0229238 9.01256 0.011409 9.17376 0.107921 9.2971C0.204433 9.42095 0.352665 9.49308 0.509353 9.49308H2.91302L1.03416 17.0445C0.975953 17.2768 1.08737 17.5181 1.30227 17.6246Z" fill="#19DF40"/>
  </symbol>
  <symbol viewBox="0 0 11 19" fill="none" id="road">
    <path d="M2.61109 0.693481L0 18.0806H1.31974L3.21335 0.693481H2.61109Z" fill="#302E2C"/>
    <path d="M8.25582 0.693481H7.65356L9.54717 18.0806H10.8669L8.25582 0.693481Z" fill="#302E2C"/>
    <path d="M3.72823 0.693481L1.83865 18.0806H4.63479L4.71177 15.5218H6.1548L6.23179 18.0806H9.02792L7.13841 0.693481H3.72823ZM5.18464 0.89282H5.68196L5.76074 3.33103H5.10581L5.18464 0.89282ZM5.02705 5.76918H5.83957L5.91838 8.20734H4.94817L5.02705 5.76918ZM4.79063 13.0836L4.86941 10.6455H5.99718L6.07604 13.0836H4.79063Z" fill="#302E2C"/>
  </symbol>
</svg>